# xmcd
#
# Track frame offsets: 
#        150
#        18747
#        37232
#
# Disc length: 707 seconds
#
# Revision: 1
# Processed by: cddbd v1.5.2PL0 Copyright (c) Steve Scherf et al.
# Submitted via: ExactAudioCopy v0.99pb4
#
DISCID=2402c103
DTITLE=Dolly Parton and James Ingram - The Day I Fall In Love [CD Single
DTITLE=)
DYEAR=1993
DGENRE=Pop, Stage and Screen - Score, Pop Rock
TTITLE0=The Day I Fall In Love (Love Theme From Beethoven's 2nd)
TTITLE1=The Day I Fall In Love (Love Theme From Beethoven's 2nd) (Inst
TTITLE1=rumental)
TTITLE2=Opening (Snoozing With Beethoven) 
EXTD=
EXTT0=
EXTT1=
EXTT2=
PLAYORDER=
